<mxfile host="app.diagrams.net" agent="Mozilla/5.0 (Windows NT 10.0; Win64; x64; rv:143.0) Gecko/20100101 Firefox/143.0" version="28.2.5">
  <diagram name="Page-1" id="PeLlq9JZ7RmtvSvruJIB">
    <mxGraphModel grid="1" page="1" gridSize="10" guides="1" tooltips="1" connect="1" arrows="1" fold="1" pageScale="1" pageWidth="827" pageHeight="1169" math="0" shadow="0">
      <root>
        <mxCell id="0" />
        <mxCell id="1" parent="0" />
        <mxCell id="TE2E3BwGg_EVvy6-RILu-2" value="V_sugerencias" style="rounded=0;whiteSpace=wrap;html=1;fillColor=#ffe6cc;strokeColor=#d79b00;" vertex="1" parent="1">
          <mxGeometry x="359" y="100" width="120" height="60" as="geometry" />
        </mxCell>
        <mxCell id="TE2E3BwGg_EVvy6-RILu-5" value="Actor" style="shape=umlActor;verticalLabelPosition=bottom;verticalAlign=top;html=1;outlineConnect=0;" vertex="1" parent="1">
          <mxGeometry x="69" y="100" width="30" height="60" as="geometry" />
        </mxCell>
        <mxCell id="TE2E3BwGg_EVvy6-RILu-6" style="edgeStyle=orthogonalEdgeStyle;rounded=0;orthogonalLoop=1;jettySize=auto;html=1;exitX=0.5;exitY=1;exitDx=0;exitDy=0;" edge="1" parent="1" source="TE2E3BwGg_EVvy6-RILu-2" target="TE2E3BwGg_EVvy6-RILu-2">
          <mxGeometry relative="1" as="geometry" />
        </mxCell>
        <mxCell id="TE2E3BwGg_EVvy6-RILu-7" value="" style="endArrow=none;dashed=1;html=1;dashPattern=1 3;strokeWidth=2;rounded=0;entryX=0.5;entryY=0.5;entryDx=0;entryDy=0;entryPerimeter=0;" edge="1" parent="1" target="TE2E3BwGg_EVvy6-RILu-5">
          <mxGeometry width="50" height="50" relative="1" as="geometry">
            <mxPoint x="84" y="1120" as="sourcePoint" />
            <mxPoint x="106" y="230" as="targetPoint" />
          </mxGeometry>
        </mxCell>
        <mxCell id="TE2E3BwGg_EVvy6-RILu-13" value="&lt;div&gt;C_reviews&lt;/div&gt;&lt;div&gt;(route.ts)&lt;/div&gt;" style="rounded=0;whiteSpace=wrap;html=1;fillColor=#e1d5e7;strokeColor=#9673a6;" vertex="1" parent="1">
          <mxGeometry x="609" y="100" width="120" height="60" as="geometry" />
        </mxCell>
        <mxCell id="TE2E3BwGg_EVvy6-RILu-14" value="" style="endArrow=none;dashed=1;html=1;dashPattern=1 3;strokeWidth=2;rounded=0;entryX=0.5;entryY=1;entryDx=0;entryDy=0;" edge="1" parent="1" target="TE2E3BwGg_EVvy6-RILu-13">
          <mxGeometry width="50" height="50" relative="1" as="geometry">
            <mxPoint x="669" y="1120" as="sourcePoint" />
            <mxPoint x="909" y="430" as="targetPoint" />
          </mxGeometry>
        </mxCell>
        <mxCell id="TE2E3BwGg_EVvy6-RILu-36" value="" style="endArrow=classic;html=1;rounded=0;" edge="1" parent="1">
          <mxGeometry width="50" height="50" relative="1" as="geometry">
            <mxPoint x="89" y="240" as="sourcePoint" />
            <mxPoint x="419" y="240" as="targetPoint" />
          </mxGeometry>
        </mxCell>
        <mxCell id="TE2E3BwGg_EVvy6-RILu-37" value="Accede a la pagina de sugerencias" style="edgeLabel;html=1;align=center;verticalAlign=middle;resizable=0;points=[];" connectable="0" vertex="1" parent="TE2E3BwGg_EVvy6-RILu-36">
          <mxGeometry x="-0.1758" y="4" relative="1" as="geometry">
            <mxPoint x="-36" y="-6" as="offset" />
          </mxGeometry>
        </mxCell>
        <mxCell id="TE2E3BwGg_EVvy6-RILu-38" value="" style="endArrow=classic;html=1;rounded=0;" edge="1" parent="1">
          <mxGeometry width="50" height="50" relative="1" as="geometry">
            <mxPoint x="89" y="280" as="sourcePoint" />
            <mxPoint x="419" y="280" as="targetPoint" />
          </mxGeometry>
        </mxCell>
        <mxCell id="TE2E3BwGg_EVvy6-RILu-39" value="Completa formulario con texto e imagen" style="text;html=1;align=center;verticalAlign=middle;resizable=0;points=[];autosize=1;strokeColor=none;fillColor=none;" vertex="1" parent="1">
          <mxGeometry x="89" y="250" width="240" height="30" as="geometry" />
        </mxCell>
        <mxCell id="TE2E3BwGg_EVvy6-RILu-40" value="" style="endArrow=classic;html=1;rounded=0;" edge="1" parent="1">
          <mxGeometry width="50" height="50" relative="1" as="geometry">
            <mxPoint x="84" y="316.81999999999994" as="sourcePoint" />
            <mxPoint x="419" y="317" as="targetPoint" />
          </mxGeometry>
        </mxCell>
        <mxCell id="TE2E3BwGg_EVvy6-RILu-41" value="Clic en botón Enviar sugerencia" style="text;html=1;align=center;verticalAlign=middle;resizable=0;points=[];autosize=1;strokeColor=none;fillColor=none;" vertex="1" parent="1">
          <mxGeometry x="89" y="290" width="190" height="30" as="geometry" />
        </mxCell>
        <mxCell id="TE2E3BwGg_EVvy6-RILu-42" value="" style="endArrow=classic;html=1;rounded=0;" edge="1" parent="1">
          <mxGeometry width="50" height="50" relative="1" as="geometry">
            <mxPoint x="419" y="340" as="sourcePoint" />
            <mxPoint x="419" y="360" as="targetPoint" />
            <Array as="points">
              <mxPoint x="469" y="340" />
              <mxPoint x="469" y="360" />
            </Array>
          </mxGeometry>
        </mxCell>
        <mxCell id="TE2E3BwGg_EVvy6-RILu-43" value="Válida texto no vacío" style="text;html=1;align=center;verticalAlign=middle;resizable=0;points=[];autosize=1;strokeColor=none;fillColor=none;" vertex="1" parent="1">
          <mxGeometry x="429" y="310" width="130" height="30" as="geometry" />
        </mxCell>
        <mxCell id="TE2E3BwGg_EVvy6-RILu-52" value="" style="endArrow=classic;html=1;rounded=0;" edge="1" parent="1">
          <mxGeometry width="50" height="50" relative="1" as="geometry">
            <mxPoint x="419" y="532" as="sourcePoint" />
            <mxPoint x="419" y="552" as="targetPoint" />
            <Array as="points">
              <mxPoint x="469" y="532" />
              <mxPoint x="469" y="552" />
            </Array>
          </mxGeometry>
        </mxCell>
        <mxCell id="TE2E3BwGg_EVvy6-RILu-53" value="Maneja error" style="text;html=1;align=center;verticalAlign=middle;resizable=0;points=[];autosize=1;strokeColor=none;fillColor=none;" vertex="1" parent="1">
          <mxGeometry x="459" y="510" width="90" height="30" as="geometry" />
        </mxCell>
        <mxCell id="TE2E3BwGg_EVvy6-RILu-54" value="" style="endArrow=classic;html=1;rounded=0;" edge="1" parent="1">
          <mxGeometry width="50" height="50" relative="1" as="geometry">
            <mxPoint x="419" y="574" as="sourcePoint" />
            <mxPoint x="419" y="594" as="targetPoint" />
            <Array as="points">
              <mxPoint x="469" y="574" />
              <mxPoint x="469" y="594" />
            </Array>
          </mxGeometry>
        </mxCell>
        <mxCell id="TE2E3BwGg_EVvy6-RILu-55" value="Setea nuevo error &quot;Error subiendo imagen&quot;" style="text;html=1;align=center;verticalAlign=middle;resizable=0;points=[];autosize=1;strokeColor=none;fillColor=none;" vertex="1" parent="1">
          <mxGeometry x="419" y="552" width="250" height="30" as="geometry" />
        </mxCell>
        <mxCell id="TE2E3BwGg_EVvy6-RILu-56" value="" style="endArrow=classic;html=1;rounded=0;" edge="1" parent="1">
          <mxGeometry width="50" height="50" relative="1" as="geometry">
            <mxPoint x="419" y="652" as="sourcePoint" />
            <mxPoint x="89" y="652" as="targetPoint" />
          </mxGeometry>
        </mxCell>
        <mxCell id="TE2E3BwGg_EVvy6-RILu-57" value="Muestra &quot;Error al enviar la sugerencia. Inténtalo de nuevo.&quot;" style="text;html=1;align=center;verticalAlign=middle;resizable=0;points=[];autosize=1;strokeColor=none;fillColor=none;" vertex="1" parent="1">
          <mxGeometry x="89" y="620" width="340" height="30" as="geometry" />
        </mxCell>
        <mxCell id="TE2E3BwGg_EVvy6-RILu-58" value="" style="endArrow=classic;html=1;rounded=0;" edge="1" parent="1">
          <mxGeometry width="50" height="50" relative="1" as="geometry">
            <mxPoint x="419" y="410" as="sourcePoint" />
            <mxPoint x="669" y="410" as="targetPoint" />
          </mxGeometry>
        </mxCell>
        <mxCell id="TE2E3BwGg_EVvy6-RILu-59" value="post/api/reviews(imagen)" style="text;html=1;align=center;verticalAlign=middle;resizable=0;points=[];autosize=1;strokeColor=none;fillColor=none;" vertex="1" parent="1">
          <mxGeometry x="434" y="378" width="160" height="30" as="geometry" />
        </mxCell>
        <mxCell id="TE2E3BwGg_EVvy6-RILu-60" value="" style="endArrow=classic;html=1;rounded=0;" edge="1" parent="1">
          <mxGeometry width="50" height="50" relative="1" as="geometry">
            <mxPoint x="674" y="440" as="sourcePoint" />
            <mxPoint x="674" y="450" as="targetPoint" />
            <Array as="points">
              <mxPoint x="714" y="440" />
              <mxPoint x="714" y="450" />
            </Array>
          </mxGeometry>
        </mxCell>
        <mxCell id="TE2E3BwGg_EVvy6-RILu-61" value="ERROR" style="text;html=1;align=center;verticalAlign=middle;resizable=0;points=[];autosize=1;strokeColor=none;fillColor=none;" vertex="1" parent="1">
          <mxGeometry x="689" y="410" width="70" height="30" as="geometry" />
        </mxCell>
        <mxCell id="TE2E3BwGg_EVvy6-RILu-62" value="" style="endArrow=classic;html=1;rounded=0;" edge="1" parent="1">
          <mxGeometry width="50" height="50" relative="1" as="geometry">
            <mxPoint x="669" y="480" as="sourcePoint" />
            <mxPoint x="419" y="480" as="targetPoint" />
          </mxGeometry>
        </mxCell>
        <mxCell id="TE2E3BwGg_EVvy6-RILu-63" value="ERROR" style="text;html=1;align=center;verticalAlign=middle;resizable=0;points=[];autosize=1;strokeColor=none;fillColor=none;" vertex="1" parent="1">
          <mxGeometry x="474" y="450" width="70" height="30" as="geometry" />
        </mxCell>
        <mxCell id="TE2E3BwGg_EVvy6-RILu-65" value="" style="endArrow=none;dashed=1;html=1;dashPattern=1 3;strokeWidth=2;rounded=0;entryX=0.5;entryY=1;entryDx=0;entryDy=0;" edge="1" parent="1" target="TE2E3BwGg_EVvy6-RILu-2">
          <mxGeometry width="50" height="50" relative="1" as="geometry">
            <mxPoint x="419" y="1120" as="sourcePoint" />
            <mxPoint x="330" y="370" as="targetPoint" />
          </mxGeometry>
        </mxCell>
      </root>
    </mxGraphModel>
  </diagram>
</mxfile>
